<svg xmlns="http://www.w3.org/2000/svg" width="1700" height="420" viewBox="0 0 1700 420">
<rect width="100%" height="100%" fill="#f8fafc"/>
<defs>
<marker id="arrow" markerWidth="10" markerHeight="7" refX="9" refY="3.5" orient="auto"><polygon points="0 0, 10 3.5, 0 7" fill="#1f2937"/></marker>
</defs>
<text x="40" y="38" font-family="Arial" font-size="22" font-weight="bold" fill="#111827">FitSenseAI Airflow DAG</text>
<rect x="40" y="90" width="220" height="58" rx="10" fill="#e5e7eb" stroke="#374151" stroke-width="1.8"/>
<text x="150.0" y="124" text-anchor="middle" font-family="Arial" font-size="12" fill="#111827">bootstrap_phase1</text>
<rect x="290" y="90" width="220" height="58" rx="10" fill="#dbeafe" stroke="#374151" stroke-width="1.8"/>
<text x="400.0" y="124" text-anchor="middle" font-family="Arial" font-size="12" fill="#111827">generate_synthetic_profiles</text>
<rect x="540" y="90" width="220" height="58" rx="10" fill="#dbeafe" stroke="#374151" stroke-width="1.8"/>
<text x="650.0" y="124" text-anchor="middle" font-family="Arial" font-size="12" fill="#111827">generate_synthetic_workouts</text>
<rect x="790" y="90" width="220" height="58" rx="10" fill="#dbeafe" stroke="#374151" stroke-width="1.8"/>
<text x="900.0" y="124" text-anchor="middle" font-family="Arial" font-size="12" fill="#111827">generate_synthetic_queries</text>
<rect x="1040" y="90" width="220" height="58" rx="10" fill="#fee2e2" stroke="#374151" stroke-width="1.8"/>
<text x="1150.0" y="124" text-anchor="middle" font-family="Arial" font-size="12" fill="#111827">call_teacher_llm</text>
<rect x="1290" y="90" width="220" height="58" rx="10" fill="#ddd6fe" stroke="#374151" stroke-width="1.8"/>
<text x="1400.0" y="124" text-anchor="middle" font-family="Arial" font-size="12" fill="#111827">build_distillation_dataset</text>
<rect x="405" y="270" width="210" height="58" rx="10" fill="#dcfce7" stroke="#374151" stroke-width="1.8"/>
<text x="510.0" y="304" text-anchor="middle" font-family="Arial" font-size="12" fill="#111827">validate_data</text>
<rect x="645" y="270" width="210" height="58" rx="10" fill="#dcfce7" stroke="#374151" stroke-width="1.8"/>
<text x="750.0" y="304" text-anchor="middle" font-family="Arial" font-size="12" fill="#111827">compute_stats</text>
<rect x="885" y="270" width="210" height="58" rx="10" fill="#dcfce7" stroke="#374151" stroke-width="1.8"/>
<text x="990.0" y="304" text-anchor="middle" font-family="Arial" font-size="12" fill="#111827">detect_anomalies</text>
<rect x="1125" y="270" width="210" height="58" rx="10" fill="#dcfce7" stroke="#374151" stroke-width="1.8"/>
<text x="1230.0" y="304" text-anchor="middle" font-family="Arial" font-size="12" fill="#111827">bias_slicing</text>
<line x1="260" y1="119.0" x2="290" y2="119.0" stroke="#1f2937" stroke-width="2.2" marker-end="url(#arrow)"/>
<line x1="510" y1="119.0" x2="540" y2="119.0" stroke="#1f2937" stroke-width="2.2" marker-end="url(#arrow)"/>
<line x1="760" y1="119.0" x2="790" y2="119.0" stroke="#1f2937" stroke-width="2.2" marker-end="url(#arrow)"/>
<line x1="1010" y1="119.0" x2="1040" y2="119.0" stroke="#1f2937" stroke-width="2.2" marker-end="url(#arrow)"/>
<line x1="1260" y1="119.0" x2="1290" y2="119.0" stroke="#1f2937" stroke-width="2.2" marker-end="url(#arrow)"/>
<line x1="1400.0" y1="148" x2="1400.0" y2="225" stroke="#1f2937" stroke-width="2.2"/>
<line x1="510.0" y1="225" x2="1230.0" y2="225" stroke="#1f2937" stroke-width="2.2"/>
<line x1="1230.0" y1="225" x2="1400.0" y2="225" stroke="#1f2937" stroke-width="2.2"/>
<line x1="510.0" y1="225" x2="510.0" y2="270" stroke="#1f2937" stroke-width="2.2" marker-end="url(#arrow)"/>
<line x1="750.0" y1="225" x2="750.0" y2="270" stroke="#1f2937" stroke-width="2.2" marker-end="url(#arrow)"/>
<line x1="990.0" y1="225" x2="990.0" y2="270" stroke="#1f2937" stroke-width="2.2" marker-end="url(#arrow)"/>
<line x1="1230.0" y1="225" x2="1230.0" y2="270" stroke="#1f2937" stroke-width="2.2" marker-end="url(#arrow)"/>
<text x="40" y="378" font-family="Arial" font-size="13" fill="#4b5563">Fan-out after distillation build matches DAG code: validate_data, compute_stats, detect_anomalies, bias_slicing run in parallel.</text>
</svg>
